<?xml version="1.0" encoding="utf-8"?>
<!-- Generator: Adobe Illustrator 23.0.0, SVG Export Plug-In . SVG Version: 6.00 Build 0)  -->
<svg version="1.1" id="Layer_1" xmlns="http://www.w3.org/2000/svg" xmlns:xlink="http://www.w3.org/1999/xlink" x="0px" y="0px"
	 viewBox="0 0 350 350" style="enable-background:new 0 0 350 350;" xml:space="preserve">
<style type="text/css">
	.st0{fill:#212121;}
	.st1{fill:#FFFFFF;}
	.st2{fill:none;stroke:#212121;stroke-width:4;stroke-miterlimit:10;}
</style>
<g>
	<g>
		<g>
			<circle class="st0" cx="78.9" cy="289.6" r="22.5"/>
			<path class="st1" d="M78.9,268.1c11.9,0,21.5,9.6,21.5,21.5s-9.6,21.5-21.5,21.5s-21.5-9.6-21.5-21.5S67.1,268.1,78.9,268.1
				 M78.9,266.1c-13,0-23.5,10.5-23.5,23.5s10.5,23.5,23.5,23.5s23.5-10.5,23.5-23.5S91.9,266.1,78.9,266.1L78.9,266.1z"/>
		</g>
		<g>
			<path class="st1" d="M73.4,290.8c0-3.3,2.1-5.4,4.4-5.4c1.2,0,2,0.4,2.9,1.2l-0.1-1.8V281h1.7v15h-1.4l-0.1-1.2h-0.1
				c-0.8,0.8-1.9,1.5-3.1,1.5C75.1,296.2,73.4,294.2,73.4,290.8z M80.6,293.3V288c-0.9-0.8-1.7-1.1-2.5-1.1c-1.6,0-2.9,1.6-2.9,3.9
				c0,2.4,1,3.9,2.8,3.9C79,294.7,79.8,294.3,80.6,293.3z"/>
		</g>
	</g>
	<g>
		<g>
			<circle class="st0" cx="78.9" cy="130.6" r="22.5"/>
			<path class="st1" d="M78.9,109.1c11.9,0,21.5,9.6,21.5,21.5s-9.6,21.5-21.5,21.5s-21.5-9.6-21.5-21.5S67.1,109.1,78.9,109.1
				 M78.9,107.1c-13,0-23.5,10.5-23.5,23.5s10.5,23.5,23.5,23.5s23.5-10.5,23.5-23.5S91.9,107.1,78.9,107.1L78.9,107.1z"/>
		</g>
		<g>
			<path class="st1" d="M76,136.9L76,136.9l-0.2,1.1h-1.4v-15h1.7v4.1l-0.1,1.8c0.9-0.8,2.1-1.4,3.2-1.4c2.6,0,4.1,2,4.1,5.2
				c0,3.5-2.1,5.5-4.4,5.5C78,138.2,76.9,137.7,76,136.9z M81.6,132.7c0-2.3-0.8-3.8-2.7-3.8c-0.9,0-1.8,0.5-2.7,1.4v5.3
				c0.9,0.8,1.8,1.1,2.5,1.1C80.3,136.7,81.6,135.2,81.6,132.7z"/>
		</g>
	</g>
	<g>
		<g>
			<circle class="st0" cx="263.9" cy="289.6" r="22.5"/>
			<path class="st1" d="M263.9,268.1c11.9,0,21.5,9.6,21.5,21.5s-9.6,21.5-21.5,21.5c-11.9,0-21.5-9.6-21.5-21.5
				S252.1,268.1,263.9,268.1 M263.9,266.1c-13,0-23.5,10.5-23.5,23.5s10.5,23.5,23.5,23.5s23.5-10.5,23.5-23.5
				S276.9,266.1,263.9,266.1L263.9,266.1z"/>
		</g>
		<g>
			<path class="st1" d="M259.6,290.2c0-3.3,2.2-5.4,4.6-5.4c2.6,0,4.1,1.9,4.1,4.8c0,0.4,0,0.7-0.1,1h-6.9c0.1,2.2,1.4,3.6,3.4,3.6
				c1,0,1.8-0.3,2.5-0.8l0.6,1.1c-0.9,0.6-2,1.1-3.4,1.1C261.7,295.5,259.6,293.5,259.6,290.2z M266.7,289.3c0-2-0.9-3.2-2.5-3.2
				c-1.4,0-2.7,1.2-2.9,3.2H266.7z"/>
		</g>
	</g>
	<g>
		<g>
			<circle class="st0" cx="174.9" cy="41.7" r="22.5"/>
			<path class="st1" d="M174.9,20.2c11.9,0,21.5,9.6,21.5,21.5s-9.6,21.5-21.5,21.5s-21.5-9.6-21.5-21.5S163,20.2,174.9,20.2
				 M174.9,18.2c-13,0-23.5,10.5-23.5,23.5s10.5,23.5,23.5,23.5s23.5-10.5,23.5-23.5S187.9,18.2,174.9,18.2L174.9,18.2z"/>
		</g>
		<g>
			<path class="st1" d="M170.9,44.2c0-2.2,1.9-3.3,6.3-3.8c0-1.3-0.4-2.6-2.1-2.6c-1.2,0-2.2,0.6-3,1.1l-0.7-1.2
				c0.9-0.6,2.4-1.3,4-1.3c2.5,0,3.5,1.7,3.5,4.2v6.3h-1.4l-0.1-1.2h-0.1c-1,0.8-2.1,1.5-3.4,1.5C172.2,47.1,170.9,46,170.9,44.2z
				 M177.2,44.3v-2.8c-3.4,0.4-4.6,1.2-4.6,2.6c0,1.2,0.8,1.6,1.8,1.6C175.4,45.7,176.2,45.2,177.2,44.3z"/>
		</g>
	</g>
	<g>
		<g>
			<circle class="st0" cx="175" cy="190" r="22.5"/>
			<path class="st1" d="M175,168.5c11.9,0,21.5,9.6,21.5,21.5s-9.6,21.5-21.5,21.5s-21.5-9.6-21.5-21.5S163.1,168.5,175,168.5
				 M175,166.5c-13,0-23.5,10.5-23.5,23.5s10.5,23.5,23.5,23.5s23.5-10.5,23.5-23.5S188,166.5,175,166.5L175,166.5z"/>
		</g>
		<g>
			<path class="st1" d="M172,187.5l1.5-0.1h3.8v1.4H172V187.5z M173.4,185.8c0-2.1,0.9-3.4,3-3.4c0.6,0,1.2,0.2,1.7,0.4l-0.4,1.3
				c-0.4-0.2-0.8-0.3-1.2-0.3c-1,0-1.4,0.7-1.4,2v11.8h-1.7V185.8z"/>
		</g>
	</g>
	<g>
		<g>
			<circle class="st0" cx="263.5" cy="130.5" r="22.5"/>
			<path class="st1" d="M263.5,109c11.9,0,21.5,9.6,21.5,21.5s-9.6,21.5-21.5,21.5c-11.9,0-21.5-9.6-21.5-21.5S251.6,109,263.5,109
				 M263.5,107c-13,0-23.5,10.5-23.5,23.5s10.5,23.5,23.5,23.5s23.5-10.5,23.5-23.5S276.5,107,263.5,107L263.5,107z"/>
		</g>
		<g>
			<path class="st1" d="M259.5,130.5c0-3.4,2.3-5.4,4.9-5.4c1.3,0,2.3,0.6,3,1.2l-0.9,1.1c-0.6-0.5-1.2-0.9-2-0.9
				c-1.8,0-3.2,1.6-3.2,3.9s1.3,3.9,3.2,3.9c0.9,0,1.8-0.5,2.4-1l0.7,1.2c-0.9,0.8-2.1,1.3-3.3,1.3
				C261.5,135.9,259.5,133.9,259.5,130.5z"/>
		</g>
	</g>
</g>
<g>
	<line class="st2" x1="262.8" y1="165" x2="262.8" y2="266"/>
	<polygon class="st0" points="262.8,154 255.9,166 269.7,166 	"/>
</g>
<g>
	<line class="st2" x1="199.9" y1="66.1" x2="246.9" y2="113.1"/>
	<polygon class="st0" points="192,57.6 195.2,71.1 205.3,61.7 	"/>
</g>
<g>
	<line class="st2" x1="104.1" y1="107.8" x2="156" y2="56"/>
	<polygon class="st0" points="95.7,115.7 109.2,112.6 99.7,102.5 	"/>
</g>
<g>
	<line class="st2" x1="205" y1="172" x2="245.4" y2="145.7"/>
	<polygon class="st0" points="195.3,178.1 209.1,177.7 201.9,165.9 	"/>
</g>
<g>
	<line class="st2" x1="108.4" y1="151.2" x2="151" y2="182"/>
	<polygon class="st0" points="99.2,144.3 104.5,157.1 112.9,146.1 	"/>
</g>
<g>
	<line class="st2" x1="228" y1="289" x2="101.8" y2="289"/>
	<polygon class="st0" points="239.8,289 227.8,282.1 227.8,295.9 	"/>
</g>
<g>
	<line class="st2" x1="228" y1="130" x2="101.8" y2="130"/>
	<polygon class="st0" points="239.8,130 227.8,123.1 227.8,136.9 	"/>
</g>
<g>
	<line class="st2" x1="79.8" y1="165" x2="79.8" y2="266"/>
	<polygon class="st0" points="79.8,154 72.9,166 86.7,166 	"/>
</g>
</svg>
