<svg id="Capa_1" data-name="Capa 1" xmlns="http://www.w3.org/2000/svg" viewBox="0 0 922.56 482.68"><defs><style>.cls-1{fill:none;stroke:#257c74;}.cls-1,.cls-2,.cls-4{stroke-miterlimit:10;stroke-width:5px;}.cls-2{fill:#195954;}.cls-2,.cls-4{stroke:#fff;}.cls-3{fill:#fff;}.cls-4{fill:#257c74;}</style></defs><title>graph</title><line class="cls-1" x1="82.98" y1="48.5" x2="334.98" y2="48.5"/><line class="cls-1" x1="415.98" y1="48.5" x2="676.98" y2="48.5"/><line class="cls-1" x1="694.98" y1="75.5" x2="505.98" y2="228.5"/><line class="cls-1" x1="748.98" y1="75.5" x2="847.98" y2="201.5"/><line class="cls-1" x1="739.98" y1="409.5" x2="856.98" y2="256.5"/><line class="cls-1" x1="505.98" y1="274.5" x2="676.98" y2="418.5"/><line class="cls-1" x1="172.98" y1="283.5" x2="64.98" y2="409.5"/><line class="cls-1" x1="64.98" y1="75.5" x2="163.98" y2="219.5"/><line class="cls-1" x1="235.98" y1="256.5" x2="433.98" y2="256.5"/><line class="cls-1" x1="82.98" y1="445.5" x2="676.98" y2="445.5"/><circle class="cls-2" cx="46.48" cy="43" r="40.5"/><path class="cls-3" d="M103.77,89.36h8.46l9.83,31.28h-7.49l-4.09-15.84c-.87-3.13-1.71-6.83-2.54-10.09h-.19c-.76,3.3-1.6,7-2.47,10.09l-4.11,15.84H93.94Zm-3.35,18.33h15v5.5h-15Z" transform="translate(-61.52 -62)"/><circle class="cls-2" cx="879.56" cy="223.68" r="40.5"/><path class="cls-3" d="M928.61,270h7.07v12.06h10.8V270h7.08v31.29h-7.08V288.26h-10.8v13.06h-7.07Z" transform="translate(-61.52 -62)"/><circle class="cls-4" cx="474.47" cy="250.68" r="40.5"/><path class="cls-3" d="M523.71,297h8.84c9.56,0,15.71,4.76,15.71,15.51s-6.15,15.78-15.31,15.78h-9.24Zm8.41,25.6c5.31,0,8.9-2.61,8.9-10.09s-3.59-9.81-8.9-9.81h-1.34v19.9Z" transform="translate(-61.52 -62)"/><circle class="cls-4" cx="375.75" cy="44.68" r="40.5"/><path class="cls-3" d="M424.94,106.86c0-10.38,6.86-16.4,14.77-16.4a13.2,13.2,0,0,1,9.41,4.06l-3.73,4.54a7.83,7.83,0,0,0-5.52-2.49c-4.29,0-7.68,3.78-7.68,10.05,0,6.43,3,10.17,7.57,10.17a8.25,8.25,0,0,0,6.12-2.92l3.72,4.44a12.86,12.86,0,0,1-10.1,4.59C431.57,122.9,424.94,117.4,424.94,106.86Z" transform="translate(-61.52 -62)"/><circle class="cls-4" cx="717.26" cy="43.68" r="40.5"/><path class="cls-3" d="M768.91,90h19.75V96H776v7.25h10.83v5.93H776v12.17h-7.07Z" transform="translate(-61.52 -62)"/><circle class="cls-4" cx="196.28" cy="251.68" r="40.5"/><path class="cls-3" d="M245.9,298h10.71c6.49,0,11.54,1.79,11.54,7.76,0,2.81-1.57,5.8-4.13,6.76v.19a7.13,7.13,0,0,1,5.67,7.36c0,6.37-5.38,9.22-12.19,9.22H245.9Zm10.38,12.54c3.43,0,5-1.46,5-3.73s-1.6-3.35-4.9-3.35H253v7.08Zm.64,13.29c3.86,0,5.85-1.37,5.85-4.21s-2-3.86-5.85-3.86h-4v8.07Z" transform="translate(-61.52 -62)"/><circle class="cls-4" cx="43" cy="439.68" r="40.5"/><path class="cls-3" d="M91.7,501.86c0-10.38,6.89-16.4,15.24-16.4a13.58,13.58,0,0,1,9.88,4.06l-3.73,4.54a8.11,8.11,0,0,0-5.91-2.49c-4.81,0-8.24,3.78-8.24,10.05,0,6.43,2.92,10.17,8.81,10.17a5.66,5.66,0,0,0,3.31-.93v-5.4h-5.18v-5.78h11.46v14.43A15.11,15.11,0,0,1,107,517.9C98.4,517.9,91.7,512.4,91.7,501.86Z" transform="translate(-61.52 -62)"/><circle class="cls-4" cx="718.35" cy="438.68" r="40.5"/><path class="cls-3" d="M769.83,485h19.6V491H776.9v6.28h10.67v5.93H776.9v7.21h13v5.93H769.83Z" transform="translate(-61.52 -62)"/><line class="cls-1" x1="388.98" y1="75.5" x2="451.98" y2="219.5"/><path class="cls-3" d="M155,260.26l3.26-4.46a9.8,9.8,0,0,0,6.68,3.08c3,0,5-1.3,5-3.64,0-2.68-1.57-4.32-8.2-4.32v-5c5.48,0,7.2-1.67,7.2-4.09,0-2.14-1.36-3.35-3.76-3.35-2.17,0-3.81,1-5.7,2.66l-3.57-4.3a14.37,14.37,0,0,1,9.59-3.9c6.33,0,10.52,3,10.52,8.36,0,3.14-1.81,5.39-5.09,6.77v.2c3.53,1,6.08,3.49,6.08,7.43,0,5.67-5.2,8.88-11.34,8.88C160.74,264.58,157.28,262.83,155,260.26Z" transform="translate(-61.52 -62)"/><path class="cls-3" d="M252.34,96.31H259V78.67h-5.71V74.29a20.49,20.49,0,0,0,7.56-2.78h5.21v24.8h5.71V102H252.34Z" transform="translate(-61.52 -62)"/><path class="cls-3" d="M342.34,303.31H349V285.67h-5.71v-4.38a20.49,20.49,0,0,0,7.56-2.78h5.21v24.8h5.71V309H342.34Z" transform="translate(-61.52 -62)"/><path class="cls-3" d="M452.78,242c7.76-7.33,13.22-12.54,13.22-16.9,0-3-1.63-4.57-4.31-4.57-2.17,0-3.9,1.49-5.42,3.1l-3.82-3.81c3-3.21,5.84-4.83,10.2-4.83,6,0,10.11,3.83,10.11,9.71,0,5.14-4.79,10.61-9.78,15.77,1.57-.18,3.69-.35,5.1-.35h6.14V246H452.78Z" transform="translate(-61.52 -62)"/><path class="cls-3" d="M596.09,98.29l3.17-4.46a9.86,9.86,0,0,0,6.59,3c3.12,0,5.12-1.65,5.12-4.78s-2-4.71-4.79-4.71a7.23,7.23,0,0,0-4.51,1.55l-3.15-2,.84-15.4h17.29v5.94h-11.2l-.5,5.72a7.92,7.92,0,0,1,3.38-.71c5.27,0,9.71,3,9.71,9.46,0,6.77-5.23,10.66-11.18,10.66A14.56,14.56,0,0,1,596.09,98.29Z" transform="translate(-61.52 -62)"/><path class="cls-3" d="M150.09,403.29l3.17-4.46a9.86,9.86,0,0,0,6.59,3.05c3.12,0,5.12-1.65,5.12-4.78s-2-4.71-4.79-4.71a7.23,7.23,0,0,0-4.51,1.55l-3.15-2,.84-15.4h17.29v5.94h-11.2l-.5,5.72a7.92,7.92,0,0,1,3.38-.71c5.27,0,9.71,3,9.71,9.46,0,6.77-5.23,10.66-11.18,10.66A14.56,14.56,0,0,1,150.09,403.29Z" transform="translate(-61.52 -62)"/><path class="cls-3" d="M388.78,494c7.76-7.33,13.22-12.54,13.22-16.9,0-2.95-1.63-4.57-4.31-4.57-2.17,0-3.9,1.49-5.42,3.1l-3.82-3.81c3-3.21,5.84-4.83,10.2-4.83,6,0,10.11,3.83,10.11,9.71,0,5.14-4.79,10.61-9.78,15.77,1.57-.18,3.69-.35,5.1-.35h6.14V498H388.78Z" transform="translate(-61.52 -62)"/><path class="cls-3" d="M627.11,417.37c0-1.94.17-4.89.27-6.83h-.19c-.77,1.72-1.64,3.41-2.5,5.15l-4,6.66h16.52v5.38H613.93v-4.88l11.13-18.34h8.63V435h-6.58Z" transform="translate(-61.52 -62)"/><path class="cls-3" d="M672.78,251c7.76-7.33,13.22-12.54,13.22-16.9,0-3-1.63-4.57-4.31-4.57-2.17,0-3.9,1.49-5.42,3.1l-3.82-3.81c3-3.21,5.84-4.83,10.2-4.83,6,0,10.11,3.83,10.11,9.71,0,5.14-4.79,10.61-9.78,15.77,1.57-.18,3.69-.35,5.1-.35h6.14V255H672.78Z" transform="translate(-61.52 -62)"/><path class="cls-3" d="M869,201.26l3.26-4.46a9.8,9.8,0,0,0,6.68,3.08c3,0,5-1.3,5-3.64,0-2.68-1.57-4.32-8.2-4.32v-5c5.48,0,7.2-1.67,7.2-4.09,0-2.14-1.36-3.35-3.76-3.35-2.17,0-3.81,1-5.7,2.66l-3.57-4.3a14.37,14.37,0,0,1,9.59-3.9c6.33,0,10.52,3,10.52,8.36,0,3.14-1.81,5.39-5.09,6.77v.2c3.53,1,6.08,3.49,6.08,7.43,0,5.67-5.2,8.88-11.34,8.88C874.74,205.58,871.28,203.83,869,201.26Z" transform="translate(-61.52 -62)"/><path class="cls-3" d="M881.34,411.31H888V393.67h-5.71v-4.38a20.49,20.49,0,0,0,7.56-2.78h5.21v24.8h5.71V417H881.34Z" transform="translate(-61.52 -62)"/></svg>