<svg id="Capa_1" data-name="Capa 1" xmlns="http://www.w3.org/2000/svg" viewBox="0 0 448.43 277.47"><defs><style>.cls-1{fill:none;stroke:#878787;stroke-miterlimit:10;stroke-width:4px;}.cls-2{fill:#595959;}.cls-3{fill:#fff;}.cls-4{fill:#ededed;}</style></defs><title>mst</title><line class="cls-1" x1="66" y1="83.47" x2="193" y2="25.47"/><line class="cls-1" x1="409" y1="40.47" x2="423" y2="150.47"/><line class="cls-1" x1="287" y1="140.47" x2="406" y2="147.47"/><line class="cls-1" x1="54" y1="93.47" x2="269" y2="140.47"/><line class="cls-1" x1="38" y1="184.47" x2="120" y2="229.47"/><line class="cls-1" x1="158" y1="237.47" x2="252" y2="251.47"/><line class="cls-1" x1="278" y1="143.47" x2="382" y2="220.47"/><line class="cls-1" x1="268" y1="120.47" x2="270" y2="234.47"/><circle class="cls-2" cx="52" cy="92" r="21"/><path class="cls-3" d="M81,88.53a20,20,0,1,1-20,20,20,20,0,0,1,20-20m0-2a22,22,0,1,0,22,22,22,22,0,0,0-22-22Z" transform="translate(-29 -16.53)"/><path class="cls-3" d="M79.5,103h3L86,114.07H83.33l-1.45-5.61c-.31-1.11-.61-2.42-.9-3.57h-.07c-.27,1.17-.56,2.46-.87,3.57l-1.46,5.61H76Zm-1.18,6.5h5.33v1.94H78.32Z" transform="translate(-29 -16.53)"/><path class="cls-2" d="M241.33,59.53a21,21,0,1,1,21-21A21,21,0,0,1,241.33,59.53Z" transform="translate(-29 -16.53)"/><path class="cls-3" d="M241.33,18.53a20,20,0,1,1-20,20,20,20,0,0,1,20-20m0-2a22,22,0,1,0,22,22,22,22,0,0,0-22-22Z" transform="translate(-29 -16.53)"/><path class="cls-3" d="M237.11,33h3.8c2.3,0,4.08.64,4.08,2.75a2.54,2.54,0,0,1-1.46,2.39v.07a2.54,2.54,0,0,1,2,2.61c0,2.25-1.91,3.26-4.32,3.26h-4.11Zm3.68,4.44c1.22,0,1.75-.51,1.75-1.32s-.56-1.18-1.73-1.18h-1.19v2.5Zm.23,4.71c1.36,0,2.07-.49,2.07-1.49s-.69-1.37-2.07-1.37h-1.4v2.86Z" transform="translate(-29 -16.53)"/><circle class="cls-2" cx="403.14" cy="25" r="21"/><path class="cls-3" d="M432.14,21.53a20,20,0,1,1-20,20,20,20,0,0,1,20-20m0-2a22,22,0,1,0,22,22,22,22,0,0,0-22-22Z" transform="translate(-29 -16.53)"/><path class="cls-3" d="M427.77,41.6c0-3.68,2.43-5.81,5.23-5.81a4.66,4.66,0,0,1,3.34,1.44L435,38.83a2.84,2.84,0,0,0-2-.88c-1.52,0-2.72,1.34-2.72,3.56s1.06,3.6,2.68,3.6a2.91,2.91,0,0,0,2.17-1l1.32,1.57a4.57,4.57,0,0,1-3.58,1.63C430.12,47.28,427.77,45.33,427.77,41.6Z" transform="translate(-29 -16.53)"/><circle class="cls-2" cx="391.85" cy="237" r="21"/><path class="cls-3" d="M420.85,233.53a20,20,0,1,1-20,20,20,20,0,0,1,20-20m0-2a22,22,0,1,0,22,22,22,22,0,0,0-22-22Z" transform="translate(-29 -16.53)"/><path class="cls-3" d="M419.59,248h2.51v11.08h-2.51Z" transform="translate(-29 -16.53)"/><circle class="cls-2" cx="272" cy="255.47" r="21"/><path class="cls-3" d="M301,252a20,20,0,1,1-20,20,20,20,0,0,1,20-20m0-2a22,22,0,1,0,22,22,22,22,0,0,0-22-22Z" transform="translate(-29 -16.53)"/><path class="cls-3" d="M297.44,265.53h7v2.1h-4.49v2.57h3.84v2.1h-3.84v4.31h-2.5Z" transform="translate(-29 -16.53)"/><circle class="cls-2" cx="426.43" cy="150" r="21"/><path class="cls-3" d="M455.43,146.53a20,20,0,1,1-20,20,20,20,0,0,1,20-20m0-2a22,22,0,1,0,22,22,22,22,0,0,0-22-22Z" transform="translate(-29 -16.53)"/><path class="cls-3" d="M451,161h2.51v4.27h3.82V161h2.51v11.08h-2.51v-4.62h-3.82v4.62H451Z" transform="translate(-29 -16.53)"/><circle class="cls-2" cx="269.23" cy="140" r="21"/><path class="cls-3" d="M298.23,136.53a20,20,0,1,1-20,20,20,20,0,0,1,20-20m0-2a22,22,0,1,0,22,22,22,22,0,0,0-22-22Z" transform="translate(-29 -16.53)"/><path class="cls-3" d="M293.69,156.6c0-3.68,2.44-5.81,5.4-5.81a4.8,4.8,0,0,1,3.49,1.44l-1.32,1.6a2.89,2.89,0,0,0-2.09-.88c-1.7,0-2.92,1.34-2.92,3.56s1,3.6,3.12,3.6a2,2,0,0,0,1.17-.32v-1.92h-1.83v-2h4.06v5.11a5.38,5.38,0,0,1-3.66,1.34C296.06,162.28,293.69,160.33,293.69,156.6Z" transform="translate(-29 -16.53)"/><circle class="cls-2" cx="139" cy="237.47" r="21"/><path class="cls-3" d="M168,234a20,20,0,1,1-20,20,20,20,0,0,1,20-20m0-2a22,22,0,1,0,22,22,22,22,0,0,0-22-22Z" transform="translate(-29 -16.53)"/><path class="cls-3" d="M164.44,247.53h6.94v2.1h-4.44v2.22h3.78V254h-3.78v2.56h4.61v2.1h-7.11Z" transform="translate(-29 -16.53)"/><circle class="cls-2" cx="22" cy="181.47" r="21"/><path class="cls-3" d="M51,178a20,20,0,1,1-20,20,20,20,0,0,1,20-20m0-2a22,22,0,1,0,22,22,22,22,0,0,0-22-22Z" transform="translate(-29 -16.53)"/><path class="cls-3" d="M47.44,191.53h3.13c3.39,0,5.56,1.68,5.56,5.49s-2.17,5.59-5.42,5.59H47.44Zm3,9.06c1.88,0,3.15-.92,3.15-3.57s-1.27-3.48-3.15-3.48h-.48v7.05Z" transform="translate(-29 -16.53)"/><path class="cls-4" d="M146,56.8c0-4,2.1-5.86,4.37-5.86a4.29,4.29,0,0,1,3.15,1.31l-1.32,1.49a2.38,2.38,0,0,0-1.67-.78c-1.26,0-2.25,1-2.25,3.84,0,2.68.85,3.47,1.76,3.47.74,0,1.36-.52,1.36-1.74S150.8,57,150,57a2,2,0,0,0-1.68,1.16l-.11-1.63a3,3,0,0,1,2.27-1.3,3,3,0,0,1,3.22,3.34,3.47,3.47,0,0,1-3.59,3.62C148,62.15,146,60.59,146,56.8Z" transform="translate(-29 -16.53)"/><path class="cls-4" d="M233.94,251.51c2.75-2.6,4.68-4.44,4.68-6a1.44,1.44,0,0,0-1.53-1.62,2.78,2.78,0,0,0-1.91,1.09l-1.36-1.35a4.56,4.56,0,0,1,3.62-1.7,3.32,3.32,0,0,1,3.58,3.43c0,1.82-1.7,3.76-3.47,5.59.56-.06,1.31-.13,1.81-.13h2.17v2.1h-7.59Z" transform="translate(-29 -16.53)"/><path class="cls-4" d="M285.3,205.7c0-.68.07-1.73.1-2.42h-.07c-.27.61-.57,1.21-.88,1.83L283,207.46h5.85v1.91h-8.24v-1.73l3.94-6.49h3.06v10.79H285.3Z" transform="translate(-29 -16.53)"/><path class="cls-4" d="M461.3,101.7c0-.68.07-1.73.1-2.42h-.07c-.27.61-.57,1.21-.88,1.83L459,103.46h5.85v1.91h-8.24v-1.73l3.94-6.49h3.06v10.79H461.3Z" transform="translate(-29 -16.53)"/><path class="cls-4" d="M366.7,149.63l1.12-1.58a3.46,3.46,0,0,0,2.33,1.08,1.6,1.6,0,0,0,1.81-1.69,1.55,1.55,0,0,0-1.69-1.67,2.56,2.56,0,0,0-1.6.55l-1.11-.72.29-5.45H374v2.1h-4l-.18,2A2.92,2.92,0,0,1,371,144a3.15,3.15,0,0,1,3.44,3.35,3.72,3.72,0,0,1-4,3.77A5.13,5.13,0,0,1,366.7,149.63Z" transform="translate(-29 -16.53)"/><path class="cls-4" d="M376.7,188.63l1.12-1.58a3.46,3.46,0,0,0,2.33,1.08,1.6,1.6,0,0,0,1.81-1.69,1.55,1.55,0,0,0-1.69-1.67,2.56,2.56,0,0,0-1.6.55l-1.11-.72.29-5.45H384v2.1h-4l-.18,2A2.92,2.92,0,0,1,381,183a3.15,3.15,0,0,1,3.44,3.35,3.72,3.72,0,0,1-4,3.77A5.13,5.13,0,0,1,376.7,188.63Z" transform="translate(-29 -16.53)"/><path class="cls-4" d="M169,117.18a3,3,0,0,1,1.84-2.65v-.07a3.11,3.11,0,0,1-1.45-2.53c0-1.84,1.45-3,3.46-3s3.28,1.17,3.28,3a3,3,0,0,1-1.41,2.36v.06a3.1,3.1,0,0,1,1.86,2.83c0,1.7-1.53,3-3.82,3S169,118.94,169,117.18Zm5.26-.11c0-.95-.92-1.31-2.28-1.88a2.34,2.34,0,0,0-.83,1.71,1.53,1.53,0,0,0,1.67,1.51A1.29,1.29,0,0,0,174.28,117.07Zm-.16-5a1.26,1.26,0,0,0-1.31-1.39,1.15,1.15,0,0,0-1.2,1.25c0,.87.75,1.29,1.85,1.73A2.46,2.46,0,0,0,174.12,112.07Z" transform="translate(-29 -16.53)"/><path class="cls-4" d="M93,241.8c0-4,2.1-5.85,4.37-5.85a4.29,4.29,0,0,1,3.15,1.3l-1.32,1.49a2.38,2.38,0,0,0-1.67-.78c-1.26,0-2.25,1-2.25,3.84,0,2.68.85,3.47,1.76,3.47.74,0,1.36-.52,1.36-1.74S97.8,242,97,242a2,2,0,0,0-1.68,1.16l-.11-1.63a3,3,0,0,1,2.27-1.3,3,3,0,0,1,3.22,3.34,3.47,3.47,0,0,1-3.59,3.62C95,247.15,93,245.59,93,241.8Z" transform="translate(-29 -16.53)"/></svg>